# xmcd
#
# Track frame offsets: 
#        182
#        19162
#        37867
#        60215
#        78607
#        99020
#        114462
#        135122
#        149785
#        170290
#
# Disc length: 2663 seconds
#
# Revision: 6
# Processed by: cddbd v1.5.2PL0 Copyright (c) Steve Scherf et al.
# Submitted via: ExactAudioCopy v0.99pb5
#
DISCID=710a650a
DTITLE=Peps Blodsband - Spelar För Livet
DYEAR=1992
DGENRE=Blues
TTITLE0=För Livet
TTITLE1=Nu och Då
TTITLE2=Tuff Tid
TTITLE3=Oh Boy!
TTITLE4=Höstens Löv (Autum Leaves)
TTITLE5=Häng Inte På (Stop Breakin' Down)
TTITLE6=Di Fåste Fjeden
TTITLE7=Du Anar Inte
TTITLE8=Tack För Dansen
TTITLE9=Blues i Bly
EXTD=In my opinon Peps is the whitest afro american in\nSweden. ID3G: 
EXTD=0
EXTT0=
EXTT1=
EXTT2=
EXTT3=
EXTT4=
EXTT5=
EXTT6=
EXTT7=
EXTT8=
EXTT9=
PLAYORDER=
